<svg xmlns="http://www.w3.org/2000/svg" width="56" height="46.919" viewBox="0 0 56 46.919">
  <g id="Frame_3" data-name="Frame 3" transform="translate(0 -5)">
    <path id="Caminho_13" data-name="Caminho 13" d="M29.142,51.919A.981.981,0,0,1,28.1,50.881v-24.5a1.038,1.038,0,1,1,2.076,0v24.5A1.112,1.112,0,0,1,29.142,51.919Z" fill="#f2e8c9"/>
    <path id="Caminho_14" data-name="Caminho 14" d="M44.921,51.919a1.079,1.079,0,0,1-.83-.415l-15.778-24.5a1.094,1.094,0,0,1,.415-1.453c.623-.415,1.038-.208,1.453.415l15.778,24.5a1.094,1.094,0,0,1-.415,1.453C45.336,51.711,45.128,51.919,44.921,51.919Z" fill="#f2e8c9"/>
    <path id="Caminho_15" data-name="Caminho 15" d="M13.572,51.918a.763.763,0,0,1-.623-.208,1.284,1.284,0,0,1-.415-1.453l15.778-24.5a1.284,1.284,0,0,1,1.453-.415,1.284,1.284,0,0,1,.415,1.453L14.4,51.3A1.113,1.113,0,0,1,13.572,51.918Z" fill="#f2e8c9"/>
    <path id="Caminho_16" data-name="Caminho 16" d="M51.564,16.833a1.142,1.142,0,0,1-1.038-.623l-2.7-6.643a.87.87,0,0,1,.623-1.246L49.9,7.7a4.584,4.584,0,0,1,3.322,0,3.917,3.917,0,0,1,2.284,2.491l.208.415a4.294,4.294,0,0,1-2.491,5.605l-1.453.623ZM50.111,9.775l1.868,4.775.623-.208a2.065,2.065,0,0,0,1.246-2.906l-.208-.415A1.634,1.634,0,0,0,52.6,9.567a2.88,2.88,0,0,0-1.868,0Z" fill="#f2e8c9"/>
    <path id="Caminho_17" data-name="Caminho 17" d="M3.4,35.31H2.984l-.623-.623L.078,28.459A.87.87,0,0,1,.7,27.214l14.325-5.605a.87.87,0,0,1,1.246.623l2.284,6.021v.83l-.623.623L3.607,35.31ZM2.362,28.667l1.661,4.152,12.456-4.775-1.661-4.152Z" fill="#f5d15f"/>
    <path id="Caminho_18" data-name="Caminho 18" d="M18.347,31.366h-.415l-.623-.623L13.572,21.4a.87.87,0,0,1,.623-1.246L28.52,14.55h.83l.623.623,3.737,9.342a.87.87,0,0,1-.623,1.246L18.762,31.366ZM16.063,21.4l2.906,7.474L31.426,24.1,28.52,16.626Z" fill="#f5d15f"/>
    <path id="Caminho_19" data-name="Caminho 19" d="M33.5,27.421a1.142,1.142,0,0,1-1.038-.623L27.482,13.927V13.1l.623-.623L47.412,5h.83l.623.623,4.982,12.871a.87.87,0,0,1-.623,1.246L33.917,27.214A.643.643,0,0,1,33.5,27.421ZM29.765,14.135l4.152,10.8,17.231-6.643L47,7.491Z" fill="#f5d15f"/>
  </g>
</svg>
