<svg xmlns="http://www.w3.org/2000/svg" width="47.349" height="47.276" viewBox="0 0 47.349 47.276">
  <g id="Grupo_2" data-name="Grupo 2" transform="translate(-237 -930)">
    <g id="Icon01" transform="translate(232.697 925.058)">
      <path id="Caminho_4" data-name="Caminho 4" d="M22.225,52.219c-.175,0-.525-.175-.7-.175L15.75,46.269a.846.846,0,0,1,0-1.225l2.975-3.85-3.5-3.5-3.675,3.15c-.35.35-.875.175-1.225,0L4.55,35.069a.77.77,0,0,1-.175-.875,2.416,2.416,0,0,1,.525-.7l13.65-5.075a.77.77,0,0,1,.875.175l8.4,8.4a.77.77,0,0,1,.175.875l-5.075,13.65c-.175.35-.35.525-.7.525C22.4,52.219,22.225,52.219,22.225,52.219Zm-4.55-6.65,4.2,4.2L26.25,38.044l-7.525-7.7L7,34.719l4.2,4.2,3.85-2.975c.175-.35.7-.35,1.05,0l4.55,4.55a.846.846,0,0,1,0,1.225Z" fill="#f5d15f"/>
      <path id="Caminho_5" data-name="Caminho 5" d="M12.95,50.994c-.175,0-.525-.175-.7-.175L5.775,44.344c-.175-.175-.35-.35-.175-.7a1.327,1.327,0,0,1,.35-.7l8.925-7a.846.846,0,0,1,1.225,0l4.55,4.55a.846.846,0,0,1,0,1.225l-7,8.925A.909.909,0,0,1,12.95,50.994Zm-5.075-7.35,5.075,5.075,5.95-7.525-3.5-3.5Z" fill="#f2e8c9"/>
      <path id="Caminho_6" data-name="Caminho 6" d="M27.3,38.569a1.052,1.052,0,0,1-.7-.175l-8.4-8.4c-.175-.175-.175-.35-.175-.7s.175-.525.175-.7l21.875-21.7a7.127,7.127,0,0,1,5.6-1.925l4.725.525a.753.753,0,0,1,.7.7l.525,4.725a7.352,7.352,0,0,1-1.925,5.6L27.825,38.394A.643.643,0,0,1,27.3,38.569Zm-7.175-9.275L27.3,36.469,48.475,15.294a5.167,5.167,0,0,0,1.4-4.2L49.35,7.069l-4.025-.525a5.371,5.371,0,0,0-4.2,1.4Z" fill="#f5d15f"/>
      <path id="Caminho_7" data-name="Caminho 7" d="M37.45,16.344a1.327,1.327,0,0,1-.7-.35.846.846,0,0,1,0-1.225l3.5-3.15a.866.866,0,0,1,1.225,1.225l-3.5,3.15C37.975,16.344,37.8,16.344,37.45,16.344Z" fill="#f2e8c9"/>
    </g>
  </g>
</svg>
