<svg xmlns="http://www.w3.org/2000/svg" xmlns:xlink="http://www.w3.org/1999/xlink" width="56" height="56" viewBox="0 0 56 56">
  <defs>
    <clipPath id="clip-path">
      <rect id="Retângulo_5" data-name="Retângulo 5" width="56" height="56" fill="#fff"/>
    </clipPath>
  </defs>
  <g id="Icon_ticket" clip-path="url(#clip-path)">
    <path id="Caminho_20" data-name="Caminho 20" d="M50.167,51.333H5.833A5.841,5.841,0,0,1,0,45.5V40.833a1.167,1.167,0,0,1,1.167-1.167H2.333a4.667,4.667,0,1,0,0-9.333H1.167A1.167,1.167,0,0,1,0,29.167V24.5a5.841,5.841,0,0,1,5.833-5.833H50.167A5.841,5.841,0,0,1,56,24.5v4.667a1.167,1.167,0,0,1-1.167,1.167H53.667a4.667,4.667,0,0,0,0,9.333h1.167A1.167,1.167,0,0,1,56,40.833V45.5A5.838,5.838,0,0,1,50.167,51.333ZM2.333,42v3.5a3.5,3.5,0,0,0,3.5,3.5H50.167a3.5,3.5,0,0,0,3.5-3.5V42h0a7,7,0,0,1,0-14V24.5a3.5,3.5,0,0,0-3.5-3.5H5.833a3.5,3.5,0,0,0-3.5,3.5V28a7,7,0,1,1,0,14Z" fill="#f5d15f"/>
    <path id="Caminho_21" data-name="Caminho 21" d="M19.833,23.333a1.167,1.167,0,0,1-1.167-1.167V19.833a1.167,1.167,0,1,1,2.333,0v2.333A1.167,1.167,0,0,1,19.833,23.333Z" fill="#f2e8c9"/>
    <path id="Caminho_22" data-name="Caminho 22" d="M19.833,43.076a1.167,1.167,0,0,1-1.167-1.167V37.963a1.167,1.167,0,0,1,2.333,0v3.948A1.165,1.165,0,0,1,19.833,43.076Zm0-9.87a1.167,1.167,0,0,1-1.167-1.167V28.091a1.167,1.167,0,1,1,2.333,0v3.948A1.167,1.167,0,0,1,19.833,33.206Z" fill="#f2e8c9"/>
    <path id="Caminho_23" data-name="Caminho 23" d="M19.833,51.333a1.167,1.167,0,0,1-1.167-1.167V47.833a1.167,1.167,0,1,1,2.333,0v2.333A1.167,1.167,0,0,1,19.833,51.333Z" fill="#f2e8c9"/>
    <path id="Caminho_24" data-name="Caminho 24" d="M5.834,21a1.166,1.166,0,0,1-.408-2.259l37.1-13.853a3.563,3.563,0,0,1,4.538,2.154l4.207,12.416a1.167,1.167,0,0,1-2.21.749L44.854,7.791a1.193,1.193,0,0,0-1.514-.719L6.24,20.925A1.124,1.124,0,0,1,5.834,21Z" fill="#f2e8c9"/>
  </g>
</svg>
