<svg xmlns="http://www.w3.org/2000/svg" width="46.587" height="47.25" viewBox="0 0 46.587 47.25">
  <g id="Icon02" transform="translate(-4.913 -4.969)">
    <path id="Caminho_8" data-name="Caminho 8" d="M50.625,19H27.875A.827.827,0,0,1,27,18.125V5.875A.827.827,0,0,1,27.875,5h22.75a.827.827,0,0,1,.875.875v12.25A.827.827,0,0,1,50.625,19ZM28.75,17.25h21V6.75h-21Z" fill="#f2e8c9"/>
    <path id="Caminho_9" data-name="Caminho 9" d="M35.013,11.443h-7a.827.827,0,0,1-.875-.875V5.844a.827.827,0,0,1,.875-.875h7a.827.827,0,0,1,.875.875v4.725A.827.827,0,0,1,35.013,11.443Zm-6.125-1.75h5.25V6.719h-5.25Z" fill="#f2e8c9"/>
    <path id="Caminho_10" data-name="Caminho 10" d="M50.063,52.218H5.788a.909.909,0,0,1-.7-.35,1.052,1.052,0,0,1-.175-.7,23.76,23.76,0,0,1,46.2,0,1.052,1.052,0,0,1-.175.7C50.588,52.043,50.413,52.218,50.063,52.218Zm-43.05-1.75h42a21.875,21.875,0,0,0-42,0Z" fill="#f5d15f"/>
    <path id="Caminho_11" data-name="Caminho 11" d="M14.363,45.218a.643.643,0,0,1-.525-.175.846.846,0,0,1,0-1.225,23.678,23.678,0,0,1,9.1-6.3.83.83,0,1,1,.525,1.575,23.294,23.294,0,0,0-8.4,5.775C14.713,45.043,14.538,45.218,14.363,45.218Z" fill="#f2e8c9"/>
    <path id="Caminho_12" data-name="Caminho 12" d="M28.013,34.718a.827.827,0,0,1-.875-.875v-28a.875.875,0,0,1,1.75,0v28A.827.827,0,0,1,28.013,34.718Z" fill="#f5d15f"/>
  </g>
</svg>
