<svg xmlns="http://www.w3.org/2000/svg" width="201" height="30.843" viewBox="0 0 201 30.843">
  <g id="Logo" transform="translate(0 -7.971)">
    <path id="Caminho_1" data-name="Caminho 1" d="M3.735,26.4a5.28,5.28,0,0,1-2.4-.817,2.556,2.556,0,0,1-.937-1.5c0-.194-.02-.194-.2,0-.2.195-.2.195-.2-.194V23.58c0,.008,4.986.008,10.967,0l10.875-.014.717-.7V21.212c0-1.576-.014-1.673-.3-1.988l-.3-.331h-9c-8.972,0-9,0-9.825-.331a2.763,2.763,0,0,1-1.953-1.79,16.871,16.871,0,0,1-.219-4.63,3.551,3.551,0,0,1,.957-2.364c1.116-1.012,1.614-1.051,11.71-1.051,8.46,0,9.421,0,10.63.428,1.116.35,2.282,1.5,2.1,2.048v.253H6.148l-.3.292c-.279.272-.3.35-.3,1.868,0,1.362,0,1.615.239,1.868l.239.292h8.815c7.663,0,8.912,0,9.576.272a3.056,3.056,0,0,1,2.473,1.79c.259.564.279.72.279,3.247,0,3.13,0,3.577-.957,4.348a4.551,4.551,0,0,1-2.621.973C22.478,26.6,4.574,26.6,3.563,26.4Zm31.738,0V9.147l.279-.253.279-.272H58.768l.817.272a3.055,3.055,0,0,1,1.993,1.634c.2.486.219.934.219,3.4v2.836l-.319.642c-.558,1.089-1.594,1.576-3.757,1.77-.757,0-4.751.194-8.889.194l-7.525,0-.638.739v6.363H35.544ZM55.7,16.388c.8-.35.937-.681.937-2.457,0-1.342-.02-1.537-.259-1.829-.538-.7-.319-.681-8.057-.72h-7.1l-.319.37c-.319.37-.319.389-.319,2.26V15.9l.837.817H48.3c6.409,0,6.911,0,7.394-.253Zm26.229,8.466a7.7,7.7,0,0,0-1.814-2.01l-.6-.389H71.73c-4.341,0-7.773,0-7.749-.194.02,0,.538-.7,1.136-1.42l1.1-1.3,5.337-.006c5.194,0,5.345-.012,5.56-.253.438-.486.319-.759-2.063-4.136-1.256-1.79-2.286-3.344-2.29-3.457a18.1,18.1,0,0,1,2.535-3.15s4.04,5.1,11.954,15.491l1.794,2.342H83.152l-1.216-1.615Zm18.291,1.556a5.437,5.437,0,0,1-3.111-1.07,2.492,2.492,0,0,1-.478-.817l-.279-.584V11.176l.359-.7A2.832,2.832,0,0,1,98.832,8.92c.717-.195,1.594-.214,10.778-.214H119.6l.876.272a5.389,5.389,0,0,1,1.316.642,2.694,2.694,0,0,1,.877,1.6l0,.272H112.5c-8.889,0-10.224,0-10.537.194l-.359.195V22.959l.758.622h20.2v.331a2.613,2.613,0,0,1-1.176,1.868c-1.2.681-1.076.661-11.356.7-5.193.014-9.61,0-9.809,0Zm31.016,0V14.785H147.95v2.724H137.222l-.638.662v4.965l.678.622h18.875V26.4h-24.87ZM131.16,8.638h25.186v2.957H131.16ZM3.852,26.488a5.258,5.258,0,0,1-2.671-.895A3.973,3.973,0,0,1,.126,23.765v-.292H10.963c5.959-.016,10.957,0,11.107,0,.5-.195.638-.623.638-2.3,0-1.381-.02-1.576-.239-1.77a.891.891,0,0,0-.518-.292H4.239l-.817-.272a2.982,2.982,0,0,1-2.1-1.973,17.477,17.477,0,0,1,0-5.581C1.662,9.945,2.559,9.27,4.434,8.953,5.909,8.7,22.084,8.7,23.507,8.943a4.511,4.511,0,0,1,2.569,1.128c.658.584.9,1.07.7,1.42l-.2.253H16.47c-9.945,0-10.11,0-10.349.233-.219.214-.239.389-.239,1.751s.02,1.556.259,1.829l.259.311,7.892,0c4.341,0,8.406,0,9.04.195a5.527,5.527,0,0,1,3.25,1.07c.817.8.937,1.284.937,4.307,0,2.235,0,2.689-.219,3.235-.438,1.226-1.455,1.848-3.432,2.159-.678.194-3.528.194-9.781.194-7.918,0-8.978,0-10.17-.194Zm31.421-8.577L35.267,9.1l.638-.584H58.684l.837.272a3.283,3.283,0,0,1,2.1,1.77c.2.486.219.934.219,3.447,0,2.8-.01,2.914-.279,3.457-.578,1.128-1.694,1.673-3.9,1.868-.7,0-4.677.194-8.851.194l-7.587,0-.259.311c-.239.311-.259.409-.219,3.6v3.29h-5.5l0-8.811ZM55.631,16.3c.777-.35.877-.642.877-2.338,0-1.634,0-1.887-.7-2.22-.359-.195-.977-.214-7.446-.233H41.312l-.3.292c-.3.292-.3.331-.3,2.177v1.887l.877.739h6.8c6.035,0,6.848,0,7.242-.233ZM83,26.628c.018,0-.518-.837-1.2-1.751C80.79,23.5,80.471,23.166,79.973,22.9l-.6-.311H63.728s.558-.72,1.236-1.537L66.2,19.592H76.938l.2-.35c.2-.292.2-.409,0-.623a37.95,37.95,0,0,0-2.364-3.436c-1.216-1.751-2.22-3.243-2.22-3.33,0,0,.6-.875,1.355-1.77,1.3-1.556,1.355-1.615,1.554-1.4.2.195,3.219,4.155,6.892,8.964s6.76,8.84,6.856,8.953c.2.194.006.214-3.035.214H83Zm18.118,0a3.637,3.637,0,0,0-1.076-.195c-2.055-.253-2.978-.759-3.52-1.926l-.279-.622V17.563c0-5.745.02-6.379.219-6.922a2.951,2.951,0,0,1,1.754-1.712c1.216-.447,2.262-.486,12.087-.447,10.354,0,10.075,0,11.31.759a2.713,2.713,0,0,1,1.2,1.926v.292h-10.3c-8.488,0-10.342,0-10.505.214-.2.194-.2.681-.2,5.562v5.4l.677.622h20.268v.331c0,1.342-1.076,2.338-2.86,2.618a10.322,10.322,0,0,0-1.494.253c-.638.194-17.108.194-17.215,0Zm29.952-5.947.02-6h16.9v2.879H137.134l-.239.272c-.219.253-.239.486-.239,2.694,0,2.406,0,2.416.3,2.706l.3.292h18.833c.2,0,.2.292.2,1.537l-.018,1.459H131.116v-6Zm.02-9.161s0-.8-.02-1.556V8.544H156.44v3.19H143.781c-10.314,0-12.667,0-12.717-.194ZM3.936,26.56C2.1,26.327,1.018,25.782.5,24.848c-.478-.856-.538-1.3-.239-1.459.2,0,3.617-.194,11.081-.194H22.184l.2-.253a8.857,8.857,0,0,0,.016-3.7c-.2-.214-.439-.233-9.05-.292-9.47,0-9.518,0-10.7-.681a2.493,2.493,0,0,1-1.3-1.381c-.259-.564-.279-.72-.279-3.259V10.958l.359-.7A3.223,3.223,0,0,1,3.888,8.585c.857-.195,1.674-.214,10.019-.214,8.235,0,9.154,0,9.9.214a5.2,5.2,0,0,1,2.25,1.07c.678.623.937,1.381.6,1.712-.2.194-2.535.194-10.178.194-6.684,0-10.11,0-10.268.194-.219.195-.239.272-.239,1.751,0,1.517.02,1.654.259,1.848.239.214.618.233,9.172.292,7.557,0,9.01,0,9.522.253a3.145,3.145,0,0,1,2.264,1.731,14.049,14.049,0,0,1,.339,5.636,3.129,3.129,0,0,1-2.744,3.169c-.937.253-1.056.253-10.509.272-5.261.012-9.909,0-10.329,0Zm31.335-8.789V8.857L35.69,8.6c.4-.253.478-.253,10.929-.253,6.557,0,10.9,0,11.527.195a5.267,5.267,0,0,1,2.878,1.089c.857.759.917,1.109.877,4.618v3l-.359.584a3.836,3.836,0,0,1-2.218,1.479c-.418.194-2.936.194-9.237.214-8.307,0-8.685,0-8.928.292-.239.214-.259.311-.259,3.576v3.35h-5.57V17.833Zm20.033-1.5a1.33,1.33,0,0,0,.817-.428c.259-.272.279-.428.319-1.673,0-1.693-.2-2.159-.8-2.467-.419-.195-1.1-.195-7.4-.195H41.3l-.239.272c-.2.253-.239.486-.239,2.163v1.887l.638.584H48.11c4.426,0,6.822,0,7.175-.195Zm26.52,8.741a8.071,8.071,0,0,0-1.754-2l-.538-.331-7.9,0c-4.98,0-7.918,0-7.964-.194A20.042,20.042,0,0,1,66.06,19.5c.219-.194.678-.214,5.548-.214,5.273,0,5.313,0,5.449-.253,0-.195.2-.331,0-.448a36.822,36.822,0,0,0-2.372-3.5c-1.275-1.809-2.318-3.366-2.318-3.439a23.94,23.94,0,0,1,2.848-3.36c.2,0,13.646,17.522,14.03,18.172,0,.194-.578.194-3.1.194l-3.185-.006-1.216-1.654Zm17.825,1.479c-1.873-.292-2.768-.856-3.265-2.056-.259-.642-.279-.778-.319-6.369,0-5.955.018-6.974.458-7.811.538-1.012,1.674-1.6,3.554-1.77,1.494-.195,17.635-.195,19.01,0a6.777,6.777,0,0,1,2.806.875,3.338,3.338,0,0,1,1.037,1.868v.331H112.755c-10.8,0-10.726,0-10.94.545V22.636l.678.623h10.14c11.412,0,10.419,0,10.146.934-.358,1.362-1.315,2.021-3.348,2.317-1.694.253-18.086.233-19.708-.008Zm31.419-5.873V14.563H148.02v3.015h-5.373c-5.255,0-5.383,0-5.7.253l-.319.253v5.046l.319.253c.319.233.4.253,9.732.253,8.743,0,9.422.014,9.5.194v1.537l-.02,1.342h-25.28V20.652Zm.024-8.994s0-.837-.02-1.692V8.4H156.5V11.7H143.813c-10.358,0-12.7,0-12.747-.194ZM3.649,26.541C1.756,26.288.6,25.529.221,24.269c-.2-.545-.2-.72,0-.856.2-.194,1.654-.194,11.019-.194H22.114l.259-.311c.219-.272.259-.467.259-1.809,0-1.3,0-1.537-.239-1.79l-.239-.272h-8.94c-9.249,0-9.445,0-10.435-.584C1.3,17.713.845,16.367.985,13.067c0-2.134.279-2.768,1.056-3.5A4.131,4.131,0,0,1,4.652,8.513c.558,0,3.9-.195,9.869,0,8.976,0,9.018,0,9.821.292a4.237,4.237,0,0,1,2.324,1.6c.319.506.339.584.2.914l-.2.35H16.6c-8.918,0-10.1,0-10.337.194-.259.195-.279.272-.279,1.693,0,1.109,0,1.576.2,1.731.2.214.438.234,8.988.292,9.345,0,9.582,0,10.732.661,1.415.7,1.774,1.731,1.774,5.025,0,3.183-.359,4.175-1.814,4.9-1.136.564-1.136.564-11.563.6-5.393.014-10.17,0-10.616,0Zm31.5-8.723,0-8.851.757-.623H58.7l.817.272a3.5,3.5,0,0,1,2.146,1.615c.3.584.319.6.319,3.546,0,3.3,0,3.564-.757,4.338a4,4,0,0,1-2.109,1.128c-.678.194-1.794.194-9.237.253-8.428,0-8.476,0-8.747.292-.279.253-.279.272-.279,3.539v3.29H35.169l-.006-8.853Zm20.478-1.692a5.166,5.166,0,0,0,.578-.428,12.78,12.78,0,0,0,.2-1.77c0-1.751-.2-2.043-.937-2.264-.279,0-2.959-.195-7.246-.195l-6.8,0-.259.311c-.239.292-.259.467-.259,2.078v1.77l.717.7h6.812c6.047,0,6.862,0,7.256-.233ZM81.8,25.037a8.54,8.54,0,0,0-1.794-2.01l-.578-.389H71.515c-6.332,0-7.914,0-7.914-.194a19.623,19.623,0,0,1,2.272-2.832l.319-.331h5.279c3.946,0,5.319,0,5.427-.195.339-.331,0-.778-2.212-4.075-1.834-2.617-2.334-3.416-2.246-3.566a28.438,28.438,0,0,1,2.852-3.266s3.28,4.068,7.087,9.04,6.977,9.108,7.043,9.19c0,.195-.558.195-3.149.195H83l-1.2-1.634Zm17.9,1.5c-2.186-.272-3.227-1.109-3.529-2.805-.2-.545-.2-2.611-.2-6.766V10.986l.359-.7A2.59,2.59,0,0,1,97.287,9.2c1.256-.837,1.674-.856,12.185-.856,9.883,0,10.519,0,11.685.584a5.142,5.142,0,0,1,.977.739c.5.564.857,1.576.657,1.809-.2.195-1.953.195-10.391.195-9.787,0-10.27.01-10.461.214s-.2.759-.2,5.546v5.33l.319.253c.318.233.378.253,10.475.253h10.154l0,.389a2.627,2.627,0,0,1-.738,1.809,4.232,4.232,0,0,1-2.784,1.109c-1.2.194-18.417.194-19.575,0Zm31.251-5.93.02-6.056h8.53c6.74,0,8.546,0,8.624.194a6.71,6.71,0,0,1,0,2.815c-.2.214-.319.233-5.487.233h-5.363l-.259.272c-.259.272-.259.37-.259,2.638,0,2.321.006,2.372.279,2.622l.279.253H146.7c7.136,0,9.416,0,9.528.194a5.739,5.739,0,0,1,.2,1.6v1.459H131V20.769Zm.02-8.99s0-.837-.02-1.693V8.387H156.5v3.307H143.751c-10.405,0-12.757,0-12.807-.194ZM3.649,26.531C1.756,26.278.6,25.52.221,24.259c-.2-.545-.2-.72,0-.856.2-.194,1.654-.194,11.019-.194H22.114l.259-.311c.219-.272.259-.467.259-1.809,0-1.3,0-1.537-.239-1.79l-.239-.272h-8.94c-9.249,0-9.445,0-10.435-.584C1.3,17.7.845,16.357.985,13.057c0-2.134.279-2.768,1.056-3.5A4.131,4.131,0,0,1,4.652,8.5c.558,0,3.9-.195,9.869,0,8.976,0,9.018,0,9.821.292a4.237,4.237,0,0,1,2.324,1.6c.319.506.339.584.2.914l-.2.35H16.6c-8.918,0-10.1,0-10.337.194-.259.195-.279.272-.279,1.692,0,1.109,0,1.576.2,1.731.2.214.438.233,8.988.292,9.345,0,9.582,0,10.732.661,1.415.7,1.774,1.731,1.774,5.025,0,3.183-.359,4.175-1.814,4.9-1.136.564-1.136.564-11.563.6-5.393.014-10.17,0-10.616,0Zm31.5-8.723,0-8.851.757-.623H58.7l.817.272a3.5,3.5,0,0,1,2.146,1.615c.3.584.319.6.319,3.547,0,3.3,0,3.564-.757,4.338a4,4,0,0,1-2.109,1.128c-.678.194-1.794.194-9.237.253-8.428,0-8.476,0-8.747.292-.279.253-.279.272-.279,3.539v3.29H35.169l-.006-8.854Zm20.478-1.693a5.156,5.156,0,0,0,.578-.428,12.78,12.78,0,0,0,.2-1.77c0-1.751-.2-2.043-.937-2.265-.279,0-2.959-.194-7.246-.194l-6.8,0-.259.311c-.239.292-.259.467-.259,2.078v1.77l.717.7h6.812c6.047,0,6.862,0,7.256-.233ZM81.8,25.027a8.543,8.543,0,0,0-1.794-2.01l-.578-.389H71.515c-6.332,0-7.914,0-7.914-.195A19.629,19.629,0,0,1,65.873,19.6l.319-.331h5.279c3.946,0,5.319,0,5.427-.194.339-.331,0-.778-2.212-4.076-1.834-2.616-2.334-3.416-2.246-3.566a28.439,28.439,0,0,1,2.852-3.266s3.28,4.068,7.087,9.04,6.977,9.108,7.043,9.19c0,.194-.558.194-3.149.194H83l-1.2-1.634Zm17.9,1.5c-2.186-.272-3.227-1.109-3.529-2.805-.2-.545-.2-2.611-.2-6.766V10.976l.359-.7a2.59,2.59,0,0,1,.957-1.089c1.256-.837,1.674-.856,12.185-.856,9.883,0,10.519,0,11.685.584a5.142,5.142,0,0,1,.977.739c.5.564.857,1.576.657,1.809-.2.194-1.953.194-10.391.194-9.787,0-10.27.01-10.461.214s-.2.759-.2,5.546v5.33l.319.253c.318.233.378.253,10.475.253h10.154l0,.389a2.627,2.627,0,0,1-.738,1.809,4.232,4.232,0,0,1-2.784,1.109c-1.2.194-18.417.194-19.575,0Zm31.251-5.93.02-6.056h8.53c6.74,0,8.546,0,8.624.194a6.71,6.71,0,0,1,0,2.815c-.2.214-.319.233-5.487.233h-5.363l-.259.272c-.259.272-.259.37-.259,2.638,0,2.321.006,2.371.279,2.622l.279.253H146.7c7.136,0,9.416,0,9.528.194a5.738,5.738,0,0,1,.2,1.6v1.459H131V20.759Zm.02-8.99s0-.837-.02-1.692V8.377H156.5v3.307H143.751c-10.405,0-12.757,0-12.807-.195ZM3.549,26.533c-2-.253-3.043-1.012-3.4-2.412-.2-.545-.2-.584.2-.8.259-.214.777-.214,11.093-.214,10.573,0,10.822-.006,10.943-.233a14.62,14.62,0,0,0,.2-1.887c0-1.479-.02-1.673-.219-1.77-.2,0-3.635-.194-8.928-.194-9.662,0-9.733,0-10.917-.836-1.236-.817-1.435-1.42-1.435-4.57,0-2.79.2-3.375.9-4.126A4.017,4.017,0,0,1,4.2,8.441c.777-.195,1.913-.195,9.773-.195,8.239,0,8.968.012,9.865.214A4.834,4.834,0,0,1,26.448,9.8c.538.584.7.992.5,1.42l-.2.292H16.763c-6.192,0-10.1,0-10.294.195L6.15,11.9v1.634c0,1.44,0,1.673.219,1.829.2.194.957.194,8.466.194,5.227,0,8.588,0,9.183.194,1.814.253,2.822.837,3.364,1.99.219.486.259.8.3,3.1.02,1.634-.01,2.8,0,3.22-.339,1.556-1.515,2.443-3.573,2.665-1.256.195-19.367.195-20.4,0Zm31.6-8.741V8.933l.279-.253a1.531,1.531,0,0,1,.558-.35c.359-.195,19.3-.195,21.358.006,2.481.195,3.689.7,4.37,1.947.239.447.259.661.3,3.35,0,3.21,0,3.762-.7,4.541a3.38,3.38,0,0,1-1.016.739c-1.275.6-1.854.642-10.668.642-7.145,0-8.147,0-8.384.194-.259.194-.279.214-.279,3.36v3.36c0,.195-.438.195-2.908.195h-2.83V17.8Zm20.242-1.673c.8-.214.937-.525.937-2.13s0-1.906-.638-2.2c-.359-.195-.917-.214-7.28-.253-6.09,0-6.917-.014-7.175.194-.279.194-.279.214-.279,2.132,0,1.79.02,1.967.239,2.185.239.233.4.233,6.993.233,4.253,0,6.914,0,7.2-.194Zm26.763,9.431c-.458-.6-1.016-1.362-1.256-1.692a3.491,3.491,0,0,0-1.036-.914l-.6-.311h-7.9c-7.073,0-7.888-.019-7.824-.194a8.841,8.841,0,0,1,1.3-1.654l1.236-1.478h5.3c4.661,0,5.327,0,5.494-.195.2-.194.2-.272.2-.389a29.183,29.183,0,0,0-2.316-3.507c-1.276-1.809-2.34-3.385-2.366-3.482a18.988,18.988,0,0,1,2.963-3.521c.2,0,14.19,18.213,14.19,18.372H83l-.817-1.089Zm17.466.973A3.756,3.756,0,0,1,96.4,24.656l-.279-.564V17.728c0-7.219,0-7.248.837-8.169a4.219,4.219,0,0,1,2.475-1.148c1.2-.233,19.1-.233,20.338,0,1.774.311,2.824,1.089,3.213,2.352.279.934,1.215.856-10.264.856-9.1,0-10.3,0-10.541.194l-.259.195V22.588l.558.506h10.051c8.119,0,10.092,0,10.267.194.2.195.2.214,0,.817a2.919,2.919,0,0,1-2.308,2.29c-.617.194-1.375.214-10.411.234-5.361.012-10.076-.016-10.475,0Zm31.3-5.912c0-5.834.008-6.027.24-6.145.358-.195,16.607-.195,16.878,0,.2.194.2.331.2,1.615v1.479h-5.473c-5.046,0-5.49,0-5.689.272-.2.194-.22.467-.22,2.626s.02,2.436.22,2.624.8.214,9.745.272h9.532v3.152H130.914V20.481Zm.146-8.884c-.2-.195-.2-.642-.2-1.712,0-1.42.02-1.576.239-1.692.259-.195,24.894-.195,25.244,0,.279.195.279,3.414,0,3.521H143.657c-9.558,0-12.531,0-12.643-.194ZM3.171,26.531A4.545,4.545,0,0,1,.7,25.4a2.994,2.994,0,0,1-.5-1.07c-.2-.545-.2-.72,0-.953,0-.195.239-.311.359-.331.2,0,4.96-.02,10.788.006,9.351,0,10.622,0,10.836-.194s.239-.311.239-1.848c0-1.362,0-1.692-.2-1.77,0,0-3.215-.195-7.808-.195-4.2,0-8.235,0-8.974-.194-1.913-.195-2.838-.467-3.563-1.167C1.058,16.888.9,16.3.819,14.014c-.2-4.072.558-5.291,3.266-5.838C5.441,7.9,22.18,7.9,23.624,8.165a4.686,4.686,0,0,1,2.766,1.381c.638.7.777,1.089.538,1.517l-.2.311h-10.2c-8.893,0-10.214,0-10.313.233a7.436,7.436,0,0,0-.2,1.556c0,1.128,0,1.42.219,1.615.219.253.259.253,8.99.292,7.9,0,8.849,0,9.494.253a3.367,3.367,0,0,1,2.8,2.566,19.532,19.532,0,0,1-.2,6.311,3.469,3.469,0,0,1-1.953,1.848l-.717.272-10.411.019c-5.728.01-10.774-.019-11.214,0Zm31.939,0V8.869l.8-.7,11.143,0c11.886,0,12.029.01,13.281.584a3.271,3.271,0,0,1,1.594,1.537c.239.506.259.739.259,3.6v3.072l-.319.584a3.557,3.557,0,0,1-2.585,1.79c-.658.194-1.574.214-9.261.253-8.48,0-8.538,0-8.749.292-.2.214-.219.564-.219,3.484v3.237H35.2ZM55.543,15.925a.779.779,0,0,0,.538-.408,12.335,12.335,0,0,0,.2-1.731c0-1.673,0-1.829-.937-2.068-.3,0-2.814-.194-7.149-.194-6.529,0-6.7.006-6.933.233-.219.214-.239.389-.239,1.926s0,1.731.259,2.009l.259.311h6.836c5.62,0,6.907,0,7.244-.195ZM82.823,26.463s-.678-.8-1.275-1.615a11.311,11.311,0,0,0-1.555-1.77l-.478-.311H71.461c-7.344,0-8.049,0-8.036-.253a8.438,8.438,0,0,1,1.315-1.751l1.3-1.556H76.858l0-.35c0-.272-.6-1.187-2.342-3.7a31.581,31.581,0,0,1-2.282-3.492,35.216,35.216,0,0,1,3.061-3.506c.2,0,14.216,18.2,14.216,18.436a38.378,38.378,0,0,1-6.69,0Zm16.428,0a3.5,3.5,0,0,1-2.982-1.949c-.279-.584-.279-.6-.319-6.8,0-7.332,0-7.32,1.016-8.351a3.045,3.045,0,0,1,1.515-.895l.9-.272H119.72l.857.272a7.869,7.869,0,0,1,1.335.6c.778.545,1.475,2.056,1.136,2.451-.2.194-1.554.194-10.369.194-6.818,0-10.305,0-10.461.195-.219.194-.239.311-.239,5.416v5.293l.558.506h10.182c11.411,0,10.429,0,10.2.895-.359,1.6-1.316,2.333-3.247,2.531-1.235.194-19.186.194-20.427-.008Zm31.628,0s0-11.768-.008-12.026c0-.195.936-.195,8.707-.195s8.635.019,8.7.195a15.244,15.244,0,0,1,0,3.013c-.2.214-.319.233-5.507.233-5.221,0-5.39.008-5.626.233-.219.214-.239.389-.239,2.541s.018,2.321.239,2.541c.24.233.4.233,9.67.233,7.906,0,9.455,0,9.57.195a3.9,3.9,0,0,1,0,1.634v1.459H143.663c-6.995.016-12.759-.006-12.8,0Zm-.008-14.882a16.8,16.8,0,0,1,.02-3.331c0-.195,2.742-.195,12.924-.195h12.826V11.6H143.789c-11.641,0-12.859.012-12.924-.194Z" fill="#fff"/>
    <path id="Caminho_2" data-name="Caminho 2" d="M201,7.971c-6.065,2.589-18.8,6.169-31.19,30.843,4.645-16.964,15.964-29.3,19.061-30.843Z" fill="#fff"/>
    <path id="Caminho_3" data-name="Caminho 3" d="M175.7,7.971H165.3l13,8.664,2.6-3.466Z" fill="#fff"/>
  </g>
</svg>
