<svg xmlns="http://www.w3.org/2000/svg" width="1435.605" height="1204.797" viewBox="0 0 1435.605 1204.797">
  <g id="Starts" transform="translate(-1.52 -31.466)">
    <ellipse id="Elipse_1" data-name="Elipse 1" cx="0.464" cy="0.383" rx="0.464" ry="0.383" transform="translate(45.135 1235.497)" fill="#c4c4c4"/>
    <ellipse id="Elipse_2" data-name="Elipse 2" cx="0.464" cy="0.383" rx="0.464" ry="0.383" transform="translate(75.759 1100.357)" fill="#c4c4c4"/>
    <ellipse id="Elipse_3" data-name="Elipse 3" cx="0.464" cy="0.383" rx="0.464" ry="0.383" transform="translate(103.599 947.546)" fill="#c4c4c4"/>
    <ellipse id="Elipse_4" data-name="Elipse 4" cx="0.464" cy="0.383" rx="0.464" ry="0.383" transform="translate(211.247 1127.227)" fill="#c4c4c4"/>
    <ellipse id="Elipse_5" data-name="Elipse 5" cx="0.928" cy="0.768" rx="0.928" ry="0.768" transform="translate(1.52 1167.162)" fill="#c4c4c4"/>
    <ellipse id="Elipse_6" data-name="Elipse 6" cx="0.464" cy="0.383" rx="0.464" ry="0.383" transform="translate(263.214 1025.867)" fill="#c4c4c4"/>
    <ellipse id="Elipse_7" data-name="Elipse 7" cx="0.464" cy="0.383" rx="0.464" ry="0.383" transform="translate(52.559 1036.617)" fill="#c4c4c4"/>
    <ellipse id="Elipse_8" data-name="Elipse 8" cx="0.464" cy="0.383" rx="0.464" ry="0.383" transform="translate(214.031 1098.817)" fill="#c4c4c4"/>
    <ellipse id="Elipse_9" data-name="Elipse 9" cx="0.464" cy="0.383" rx="0.464" ry="0.383" transform="translate(105.455 1008.207)" fill="#c4c4c4"/>
    <ellipse id="Elipse_10" data-name="Elipse 10" cx="0.464" cy="0.383" rx="0.464" ry="0.383" transform="translate(128.655 1064.266)" fill="#c4c4c4"/>
    <ellipse id="Elipse_11" data-name="Elipse 11" cx="0.928" cy="0.768" rx="0.928" ry="0.768" transform="translate(1021.382 1132.602)" fill="#c4c4c4"/>
    <ellipse id="Elipse_12" data-name="Elipse 12" cx="0.928" cy="0.768" rx="0.928" ry="0.768" transform="translate(1012.102 1102.652)" fill="#c4c4c4"/>
    <ellipse id="Elipse_13" data-name="Elipse 13" cx="0.928" cy="0.768" rx="0.928" ry="0.768" transform="translate(222.382 1008.972)" fill="#c4c4c4"/>
    <ellipse id="Elipse_14" data-name="Elipse 14" cx="0.928" cy="0.768" rx="0.928" ry="0.768" transform="translate(653.9 846.953)" fill="#c4c4c4"/>
    <ellipse id="Elipse_15" data-name="Elipse 15" cx="0.928" cy="0.768" rx="0.928" ry="0.768" transform="translate(253.934 1085.762)" fill="#c4c4c4"/>
    <ellipse id="Elipse_16" data-name="Elipse 16" cx="0.928" cy="0.768" rx="0.928" ry="0.768" transform="translate(224.238 1072.712)" fill="#c4c4c4"/>
    <ellipse id="Elipse_17" data-name="Elipse 17" cx="0.928" cy="0.768" rx="0.928" ry="0.768" transform="translate(746.7 817.005)" fill="#c4c4c4"/>
    <ellipse id="Elipse_18" data-name="Elipse 18" cx="0.928" cy="0.768" rx="0.928" ry="0.768" transform="translate(135.151 1058.122)" fill="#c4c4c4"/>
    <ellipse id="Elipse_19" data-name="Elipse 19" cx="0.928" cy="0.768" rx="0.928" ry="0.768" transform="translate(580.588 975.189)" fill="#c4c4c4"/>
    <ellipse id="Elipse_20" data-name="Elipse 20" cx="0.464" cy="0.383" rx="0.464" ry="0.383" transform="translate(668.748 823.918)" fill="#c4c4c4"/>
    <ellipse id="Elipse_21" data-name="Elipse 21" cx="0.464" cy="0.383" rx="0.464" ry="0.383" transform="translate(765.26 855.4)" fill="#c4c4c4"/>
    <ellipse id="Elipse_22" data-name="Elipse 22" cx="0.464" cy="0.383" rx="0.464" ry="0.383" transform="translate(1116.966 849.258)" fill="#c4c4c4"/>
    <ellipse id="Elipse_23" data-name="Elipse 23" cx="0.464" cy="0.383" rx="0.464" ry="0.383" transform="translate(114.735 1188.656)" fill="#c4c4c4"/>
    <ellipse id="Elipse_24" data-name="Elipse 24" cx="0.464" cy="0.383" rx="0.464" ry="0.383" transform="translate(1072.426 1085.766)" fill="#c4c4c4"/>
    <ellipse id="Elipse_25" data-name="Elipse 25" cx="0.464" cy="0.383" rx="0.464" ry="0.383" transform="translate(554.605 907.616)" fill="#c4c4c4"/>
    <ellipse id="Elipse_26" data-name="Elipse 26" cx="0.464" cy="0.383" rx="0.464" ry="0.383" transform="translate(1074.286 1218.607)" fill="#c4c4c4"/>
    <ellipse id="Elipse_27" data-name="Elipse 27" cx="0.464" cy="0.383" rx="0.464" ry="0.383" transform="translate(601.933 878.437)" fill="#c4c4c4"/>
    <ellipse id="Elipse_28" data-name="Elipse 28" cx="0.464" cy="0.383" rx="0.464" ry="0.383" transform="translate(595.437 827.757)" fill="#c4c4c4"/>
    <ellipse id="Elipse_29" data-name="Elipse 29" cx="0.928" cy="0.768" rx="0.928" ry="0.768" transform="translate(319.822 1137.212)" fill="#c4c4c4"/>
    <ellipse id="Elipse_30" data-name="Elipse 30" cx="0.464" cy="0.383" rx="0.464" ry="0.383" transform="translate(214.031 1220.906)" fill="#c4c4c4"/>
    <ellipse id="Elipse_31" data-name="Elipse 31" cx="0.464" cy="0.383" rx="0.464" ry="0.383" transform="translate(565.741 831.596)" fill="#c4c4c4"/>
    <ellipse id="Elipse_32" data-name="Elipse 32" cx="0.464" cy="0.383" rx="0.464" ry="0.383" transform="translate(536.045 818.542)" fill="#c4c4c4"/>
    <ellipse id="Elipse_33" data-name="Elipse 33" cx="0.464" cy="0.383" rx="0.464" ry="0.383" transform="translate(338.382 849.258)" fill="#c4c4c4"/>
    <ellipse id="Elipse_34" data-name="Elipse 34" cx="0.464" cy="0.383" rx="0.464" ry="0.383" transform="translate(329.102 819.31)" fill="#c4c4c4"/>
    <ellipse id="Elipse_35" data-name="Elipse 35" cx="0.464" cy="0.383" rx="0.464" ry="0.383" transform="translate(243.726 833.9)" fill="#c4c4c4"/>
    <ellipse id="Elipse_36" data-name="Elipse 36" cx="0.464" cy="0.383" rx="0.464" ry="0.383" transform="translate(325.39 843.882)" fill="#c4c4c4"/>
    <ellipse id="Elipse_37" data-name="Elipse 37" cx="0.928" cy="0.768" rx="0.928" ry="0.768" transform="translate(1248.742 825.453)" fill="#c4c4c4"/>
    <ellipse id="Elipse_38" data-name="Elipse 38" cx="0.464" cy="0.383" rx="0.464" ry="0.383" transform="translate(1064.076 1046.597)" fill="#c4c4c4"/>
    <ellipse id="Elipse_39" data-name="Elipse 39" cx="0.928" cy="0.768" rx="0.928" ry="0.768" transform="translate(153.711 241.097)" fill="#c4c4c4"/>
    <ellipse id="Elipse_40" data-name="Elipse 40" cx="0.928" cy="0.768" rx="0.928" ry="0.768" transform="translate(144.431 211.151)" fill="#c4c4c4"/>
    <ellipse id="Elipse_41" data-name="Elipse 41" cx="0.464" cy="0.383" rx="0.464" ry="0.383" transform="translate(90.607 398.512)" fill="#c4c4c4"/>
    <ellipse id="Elipse_42" data-name="Elipse 42" cx="0.464" cy="0.383" rx="0.464" ry="0.383" transform="translate(199.183 427.692)" fill="#c4c4c4"/>
    <ellipse id="Elipse_43" data-name="Elipse 43" cx="0.464" cy="0.383" rx="0.464" ry="0.383" transform="translate(278.99 407.727)" fill="#c4c4c4"/>
    <ellipse id="Elipse_44" data-name="Elipse 44" cx="0.928" cy="0.768" rx="0.928" ry="0.768" transform="translate(228.878 455.336)" fill="#c4c4c4"/>
    <ellipse id="Elipse_45" data-name="Elipse 45" cx="0.464" cy="0.383" rx="0.464" ry="0.383" transform="translate(154.639 420.781)" fill="#c4c4c4"/>
    <ellipse id="Elipse_46" data-name="Elipse 46" cx="0.464" cy="0.383" rx="0.464" ry="0.383" transform="translate(204.751 194.256)" fill="#c4c4c4"/>
    <ellipse id="Elipse_47" data-name="Elipse 47" cx="0.464" cy="0.383" rx="0.464" ry="0.383" transform="translate(206.607 327.1)" fill="#c4c4c4"/>
    <ellipse id="Elipse_48" data-name="Elipse 48" cx="0.464" cy="0.383" rx="0.464" ry="0.383" transform="translate(92.463 302.528)" fill="#c4c4c4"/>
    <ellipse id="Elipse_49" data-name="Elipse 49" cx="0.464" cy="0.383" rx="0.464" ry="0.383" transform="translate(85.967 251.848)" fill="#c4c4c4"/>
    <ellipse id="Elipse_50" data-name="Elipse 50" cx="0.464" cy="0.383" rx="0.464" ry="0.383" transform="translate(85.967 153.559)" fill="#c4c4c4"/>
    <ellipse id="Elipse_51" data-name="Elipse 51" cx="0.464" cy="0.383" rx="0.464" ry="0.383" transform="translate(196.399 155.095)" fill="#c4c4c4"/>
    <ellipse id="Elipse_52" data-name="Elipse 52" cx="0.464" cy="0.383" rx="0.464" ry="0.383" transform="translate(1250.606 991.315)" fill="#c4c4c4"/>
    <ellipse id="Elipse_53" data-name="Elipse 53" cx="0.928" cy="0.768" rx="0.928" ry="0.768" transform="translate(1129.962 903.776)" fill="#c4c4c4"/>
    <ellipse id="Elipse_54" data-name="Elipse 54" cx="0.464" cy="0.383" rx="0.464" ry="0.383" transform="translate(263.214 958.295)" fill="#c4c4c4"/>
    <ellipse id="Elipse_55" data-name="Elipse 55" cx="0.928" cy="0.768" rx="0.928" ry="0.768" transform="translate(299.406 942.938)" fill="#c4c4c4"/>
    <ellipse id="Elipse_56" data-name="Elipse 56" cx="0.464" cy="0.383" rx="0.464" ry="0.383" transform="translate(269.71 929.885)" fill="#c4c4c4"/>
    <ellipse id="Elipse_57" data-name="Elipse 57" cx="0.928" cy="0.768" rx="0.928" ry="0.768" transform="translate(456.237 924.508)" fill="#c4c4c4"/>
    <ellipse id="Elipse_58" data-name="Elipse 58" cx="0.928" cy="0.768" rx="0.928" ry="0.768" transform="translate(558.317 853.864)" fill="#c4c4c4"/>
    <ellipse id="Elipse_59" data-name="Elipse 59" cx="0.928" cy="0.768" rx="0.928" ry="0.768" transform="translate(84.111 816.238)" fill="#c4c4c4"/>
    <ellipse id="Elipse_60" data-name="Elipse 60" cx="0.464" cy="0.383" rx="0.464" ry="0.383" transform="translate(1423.206 1144.127)" fill="#c4c4c4"/>
    <ellipse id="Elipse_61" data-name="Elipse 61" cx="0.928" cy="0.768" rx="0.928" ry="0.768" transform="translate(19.152 955.992)" fill="#c4c4c4"/>
    <ellipse id="Elipse_62" data-name="Elipse 62" cx="0.464" cy="0.383" rx="0.464" ry="0.383" transform="translate(1421.356 1235.497)" fill="#c4c4c4"/>
    <ellipse id="Elipse_63" data-name="Elipse 63" cx="0.928" cy="0.768" rx="0.928" ry="0.768" transform="translate(60.911 482.211)" fill="#c4c4c4"/>
    <ellipse id="Elipse_64" data-name="Elipse 64" cx="0.928" cy="0.768" rx="0.928" ry="0.768" transform="translate(51.631 452.264)" fill="#c4c4c4"/>
    <ellipse id="Elipse_65" data-name="Elipse 65" cx="0.464" cy="0.383" rx="0.464" ry="0.383" transform="translate(50.703 747.129)" fill="#c4c4c4"/>
    <ellipse id="Elipse_66" data-name="Elipse 66" cx="0.464" cy="0.383" rx="0.464" ry="0.383" transform="translate(130.511 813.935)" fill="#c4c4c4"/>
    <ellipse id="Elipse_67" data-name="Elipse 67" cx="0.464" cy="0.383" rx="0.464" ry="0.383" transform="translate(239.087 756.344)" fill="#c4c4c4"/>
    <ellipse id="Elipse_68" data-name="Elipse 68" cx="0.928" cy="0.768" rx="0.928" ry="0.768" transform="translate(160.207 841.578)" fill="#c4c4c4"/>
    <ellipse id="Elipse_69" data-name="Elipse 69" cx="0.464" cy="0.383" rx="0.464" ry="0.383" transform="translate(85.967 807.024)" fill="#c4c4c4"/>
    <ellipse id="Elipse_70" data-name="Elipse 70" cx="0.464" cy="0.383" rx="0.464" ry="0.383" transform="translate(103.599 465.319)" fill="#c4c4c4"/>
    <ellipse id="Elipse_71" data-name="Elipse 71" cx="0.464" cy="0.383" rx="0.464" ry="0.383" transform="translate(1054.796 664.966)" fill="#c4c4c4"/>
    <ellipse id="Elipse_72" data-name="Elipse 72" cx="0.928" cy="0.768" rx="0.928" ry="0.768" transform="translate(1018.602 692.61)" fill="#c4c4c4"/>
    <ellipse id="Elipse_73" data-name="Elipse 73" cx="0.464" cy="0.383" rx="0.464" ry="0.383" transform="translate(1010.246 658.056)" fill="#c4c4c4"/>
    <ellipse id="Elipse_74" data-name="Elipse 74" cx="0.464" cy="0.383" rx="0.464" ry="0.383" transform="translate(948.075 539.803)" fill="#c4c4c4"/>
    <ellipse id="Elipse_75" data-name="Elipse 75" cx="0.464" cy="0.383" rx="0.464" ry="0.383" transform="translate(859.915 538.267)" fill="#c4c4c4"/>
    <ellipse id="Elipse_76" data-name="Elipse 76" cx="0.464" cy="0.383" rx="0.464" ry="0.383" transform="translate(850.635 508.319)" fill="#c4c4c4"/>
    <ellipse id="Elipse_77" data-name="Elipse 77" cx="0.464" cy="0.383" rx="0.464" ry="0.383" transform="translate(846.923 532.892)" fill="#c4c4c4"/>
    <ellipse id="Elipse_78" data-name="Elipse 78" cx="0.464" cy="0.383" rx="0.464" ry="0.383" transform="translate(763.404 614.286)" fill="#c4c4c4"/>
    <ellipse id="Elipse_79" data-name="Elipse 79" cx="0.464" cy="0.383" rx="0.464" ry="0.383" transform="translate(765.26 674.949)" fill="#c4c4c4"/>
    <ellipse id="Elipse_80" data-name="Elipse 80" cx="0.928" cy="0.768" rx="0.928" ry="0.768" transform="translate(916.523 719.485)" fill="#c4c4c4"/>
    <ellipse id="Elipse_81" data-name="Elipse 81" cx="0.928" cy="0.768" rx="0.928" ry="0.768" transform="translate(907.243 689.538)" fill="#c4c4c4"/>
    <ellipse id="Elipse_82" data-name="Elipse 82" cx="0.464" cy="0.383" rx="0.464" ry="0.383" transform="translate(959.211 702.592)" fill="#c4c4c4"/>
    <ellipse id="Elipse_83" data-name="Elipse 83" cx="0.464" cy="0.383" rx="0.464" ry="0.383" transform="translate(175.055 645.769)" fill="#c4c4c4"/>
    <ellipse id="Elipse_84" data-name="Elipse 84" cx="0.464" cy="0.383" rx="0.464" ry="0.383" transform="translate(60.911 621.198)" fill="#c4c4c4"/>
    <ellipse id="Elipse_85" data-name="Elipse 85" cx="0.464" cy="0.383" rx="0.464" ry="0.383" transform="translate(54.415 570.518)" fill="#c4c4c4"/>
    <ellipse id="Elipse_86" data-name="Elipse 86" cx="0.464" cy="0.383" rx="0.464" ry="0.383" transform="translate(517.485 576.66)" fill="#c4c4c4"/>
    <ellipse id="Elipse_87" data-name="Elipse 87" cx="0.464" cy="0.383" rx="0.464" ry="0.383" transform="translate(688.236 793.97)" fill="#c4c4c4"/>
    <ellipse id="Elipse_88" data-name="Elipse 88" cx="0.464" cy="0.383" rx="0.464" ry="0.383" transform="translate(768.044 860.775)" fill="#c4c4c4"/>
    <ellipse id="Elipse_89" data-name="Elipse 89" cx="0.464" cy="0.383" rx="0.464" ry="0.383" transform="translate(1145.736 803.185)" fill="#c4c4c4"/>
    <ellipse id="Elipse_90" data-name="Elipse 90" cx="0.464" cy="0.383" rx="0.464" ry="0.383" transform="translate(812.588 692.61)" fill="#c4c4c4"/>
    <ellipse id="Elipse_91" data-name="Elipse 91" cx="0.464" cy="0.383" rx="0.464" ry="0.383" transform="translate(698.444 668.038)" fill="#c4c4c4"/>
    <ellipse id="Elipse_92" data-name="Elipse 92" cx="0.464" cy="0.383" rx="0.464" ry="0.383" transform="translate(691.948 617.358)" fill="#c4c4c4"/>
    <ellipse id="Elipse_93" data-name="Elipse 93" cx="0.464" cy="0.383" rx="0.464" ry="0.383" transform="translate(610.285 666.502)" fill="#c4c4c4"/>
    <ellipse id="Elipse_94" data-name="Elipse 94" cx="0.464" cy="0.383" rx="0.464" ry="0.383" transform="translate(597.293 661.127)" fill="#c4c4c4"/>
    <ellipse id="Elipse_95" data-name="Elipse 95" cx="0.464" cy="0.383" rx="0.464" ry="0.383" transform="translate(426.542 635.787)" fill="#c4c4c4"/>
    <ellipse id="Elipse_96" data-name="Elipse 96" cx="0.928" cy="0.768" rx="0.928" ry="0.768" transform="translate(619.564 775.541)" fill="#c4c4c4"/>
    <ellipse id="Elipse_97" data-name="Elipse 97" cx="0.464" cy="0.383" rx="0.464" ry="0.383" transform="translate(1129.036 928.349)" fill="#c4c4c4"/>
    <ellipse id="Elipse_98" data-name="Elipse 98" cx="0.464" cy="0.383" rx="0.464" ry="0.383" transform="translate(1130.886 989.011)" fill="#c4c4c4"/>
    <ellipse id="Elipse_99" data-name="Elipse 99" cx="0.928" cy="0.768" rx="0.928" ry="0.768" transform="translate(1247.812 989.779)" fill="#c4c4c4"/>
    <ellipse id="Elipse_100" data-name="Elipse 100" cx="0.928" cy="0.768" rx="0.928" ry="0.768" transform="translate(21.007 70.629)" fill="#c4c4c4"/>
    <ellipse id="Elipse_101" data-name="Elipse 101" cx="0.928" cy="0.768" rx="0.928" ry="0.768" transform="translate(1008.392 952.153)" fill="#c4c4c4"/>
    <ellipse id="Elipse_102" data-name="Elipse 102" cx="0.928" cy="0.768" rx="0.928" ry="0.768" transform="translate(1044.582 936.794)" fill="#c4c4c4"/>
    <ellipse id="Elipse_103" data-name="Elipse 103" cx="0.928" cy="0.768" rx="0.928" ry="0.768" transform="translate(467.373 314.046)" fill="#c4c4c4"/>
    <ellipse id="Elipse_104" data-name="Elipse 104" cx="0.928" cy="0.768" rx="0.928" ry="0.768" transform="translate(458.093 284.099)" fill="#c4c4c4"/>
    <ellipse id="Elipse_105" data-name="Elipse 105" cx="0.464" cy="0.383" rx="0.464" ry="0.383" transform="translate(592.653 480.676)" fill="#c4c4c4"/>
    <ellipse id="Elipse_106" data-name="Elipse 106" cx="0.464" cy="0.383" rx="0.464" ry="0.383" transform="translate(518.413 267.206)" fill="#c4c4c4"/>
    <ellipse id="Elipse_107" data-name="Elipse 107" cx="0.464" cy="0.383" rx="0.464" ry="0.383" transform="translate(520.269 400.049)" fill="#c4c4c4"/>
    <ellipse id="Elipse_108" data-name="Elipse 108" cx="0.464" cy="0.383" rx="0.464" ry="0.383" transform="translate(510.061 228.044)" fill="#c4c4c4"/>
    <ellipse id="Elipse_109" data-name="Elipse 109" cx="0.928" cy="0.768" rx="0.928" ry="0.768" transform="translate(643.692 307.902)" fill="#c4c4c4"/>
    <ellipse id="Elipse_110" data-name="Elipse 110" cx="0.928" cy="0.768" rx="0.928" ry="0.768" transform="translate(717.004 425.388)" fill="#c4c4c4"/>
    <ellipse id="Elipse_111" data-name="Elipse 111" cx="0.928" cy="0.768" rx="0.928" ry="0.768" transform="translate(454.381 133.595)" fill="#c4c4c4"/>
    <ellipse id="Elipse_112" data-name="Elipse 112" cx="0.928" cy="0.768" rx="0.928" ry="0.768" transform="translate(490.573 118.237)" fill="#c4c4c4"/>
    <ellipse id="Elipse_113" data-name="Elipse 113" cx="0.928" cy="0.768" rx="0.928" ry="0.768" transform="translate(1013.032 863.847)" fill="#c4c4c4"/>
    <ellipse id="Elipse_114" data-name="Elipse 114" cx="0.464" cy="0.383" rx="0.464" ry="0.383" transform="translate(1259.886 1101.117)" fill="#c4c4c4"/>
    <ellipse id="Elipse_115" data-name="Elipse 115" cx="0.928" cy="0.768" rx="0.928" ry="0.768" transform="translate(1136.462 825.453)" fill="#c4c4c4"/>
    <ellipse id="Elipse_116" data-name="Elipse 116" cx="0.464" cy="0.383" rx="0.464" ry="0.383" transform="translate(1436.196 1102.656)" fill="#c4c4c4"/>
    <ellipse id="Elipse_117" data-name="Elipse 117" cx="0.464" cy="0.383" rx="0.464" ry="0.383" transform="translate(1221.836 1047.367)" fill="#c4c4c4"/>
    <ellipse id="Elipse_118" data-name="Elipse 118" cx="0.928" cy="0.768" rx="0.928" ry="0.768" transform="translate(1091.912 818.541)" fill="#c4c4c4"/>
    <ellipse id="Elipse_119" data-name="Elipse 119" cx="0.928" cy="0.768" rx="0.928" ry="0.768" transform="translate(1309.062 865.382)" fill="#c4c4c4"/>
    <ellipse id="Elipse_120" data-name="Elipse 120" cx="0.464" cy="0.383" rx="0.464" ry="0.383" transform="translate(470.157 39.145)" fill="#c4c4c4"/>
    <ellipse id="Elipse_121" data-name="Elipse 121" cx="0.464" cy="0.383" rx="0.464" ry="0.383" transform="translate(388.494 88.289)" fill="#c4c4c4"/>
    <ellipse id="Elipse_122" data-name="Elipse 122" cx="0.464" cy="0.383" rx="0.464" ry="0.383" transform="translate(293.838 72.932)" fill="#c4c4c4"/>
    <ellipse id="Elipse_123" data-name="Elipse 123" cx="0.464" cy="0.383" rx="0.464" ry="0.383" transform="translate(375.502 82.914)" fill="#c4c4c4"/>
    <ellipse id="Elipse_124" data-name="Elipse 124" cx="0.464" cy="0.383" rx="0.464" ry="0.383" transform="translate(291.982 164.31)" fill="#c4c4c4"/>
    <ellipse id="Elipse_125" data-name="Elipse 125" cx="0.928" cy="0.768" rx="0.928" ry="0.768" transform="translate(207.534 172.757)" fill="#c4c4c4"/>
    <ellipse id="Elipse_126" data-name="Elipse 126" cx="0.464" cy="0.383" rx="0.464" ry="0.383" transform="translate(306.83 31.466)" fill="#c4c4c4"/>
    <ellipse id="Elipse_127" data-name="Elipse 127" cx="0.464" cy="0.383" rx="0.464" ry="0.383" transform="translate(936.939 384.69)" fill="#c4c4c4"/>
    <ellipse id="Elipse_128" data-name="Elipse 128" cx="0.464" cy="0.383" rx="0.464" ry="0.383" transform="translate(967.563 249.544)" fill="#c4c4c4"/>
    <ellipse id="Elipse_129" data-name="Elipse 129" cx="0.928" cy="0.768" rx="0.928" ry="0.768" transform="translate(858.059 241.865)" fill="#c4c4c4"/>
    <ellipse id="Elipse_130" data-name="Elipse 130" cx="0.928" cy="0.768" rx="0.928" ry="0.768" transform="translate(893.323 316.349)" fill="#c4c4c4"/>
    <ellipse id="Elipse_131" data-name="Elipse 131" cx="0.928" cy="0.768" rx="0.928" ry="0.768" transform="translate(1145.742 234.954)" fill="#c4c4c4"/>
    <ellipse id="Elipse_132" data-name="Elipse 132" cx="0.928" cy="0.768" rx="0.928" ry="0.768" transform="translate(1116.042 221.9)" fill="#c4c4c4"/>
    <ellipse id="Elipse_133" data-name="Elipse 133" cx="0.928" cy="0.768" rx="0.928" ry="0.768" transform="translate(1026.952 207.311)" fill="#c4c4c4"/>
    <ellipse id="Elipse_134" data-name="Elipse 134" cx="0.464" cy="0.383" rx="0.464" ry="0.383" transform="translate(1135.526 397.745)" fill="#c4c4c4"/>
    <ellipse id="Elipse_135" data-name="Elipse 135" cx="0.928" cy="0.768" rx="0.928" ry="0.768" transform="translate(910.955 105.182)" fill="#c4c4c4"/>
  </g>
</svg>
